# xmcd CD database file
#
# Track frame offsets:
#	150
#	21826
#	40084
#	62810
#	81865
#	101925
#	125471
#	144195
#	164274
#	188240
#	201792
#
# Disc length: 3102 seconds
#
# Revision: 0
# Processed by: cddbd v1.4PL0 Copyright (c) Steve Scherf et al.
# Submitted via: Feurio! 1.63 - http://www.feurio.com
#
DISCID=940c1c0b
DTITLE=KOZMIC BLUE - Nothing but magic
DYEAR=1900
DGENRE=
TTITLE0=Lets uproot the bush
TTITLE1=I Can't stand it
TTITLE2=Breeze of love
TTITLE3=Hold me tight
TTITLE4=Ain't nobody white
TTITLE5=Kozmic blues
TTITLE6=Here comes the sun
TTITLE7=Days gonna come by
TTITLE8=All for you
TTITLE9=Nothing but the blues
TTITLE10=Sail away
EXTD=
EXTT0=
EXTT1=
EXTT2=
EXTT3=
EXTT4=
EXTT5=
EXTT6=
EXTT7=
EXTT8=
EXTT9=
EXTT10=
PLAYORDER=
